<svg width="42" height="51" viewBox="0 0 42 51" fill="none" xmlns="http://www.w3.org/2000/svg">
<path fill-rule="evenodd" clip-rule="evenodd" d="M39.0886 10.2404V5.86715L39.0886 5.86856C39.0885 5.86856 39.0883 5.86755 39.088 5.8655C39.0861 5.8523 39.078 5.79612 39.0436 5.6937C39.0013 5.56772 38.9299 5.40392 38.8212 5.21524C38.604 4.83828 38.2554 4.39227 37.7489 3.97573C36.7537 3.15736 35.1044 2.41683 32.5376 2.60575C28.1871 2.92596 24.6506 4.38142 22.0191 6.35392C24.2393 8.48449 25.7034 10.9923 26.2796 13.4749C26.4774 13.2246 26.6879 12.985 26.9093 12.7578C28.3355 11.2944 30.3182 10.2404 32.4642 10.2404H39.0886ZM15.6401 50.1778C16.163 50.5475 16.8101 50.6847 17.4827 50.6847H23.6496C24.4754 50.6847 25.2627 50.478 25.8288 49.888C26.3874 49.3059 26.5558 48.5312 26.5558 47.7844V17.5802C26.7227 16.3941 27.3644 15.1564 28.3416 14.1537C29.4827 12.9828 30.9758 12.2404 32.4642 12.2404H40.0886H41.0886V11.2404V5.86446C41.0886 5.3608 40.869 4.76338 40.5541 4.21685C40.2199 3.63667 39.7162 3.00411 39.0191 2.43094C37.6072 1.26989 35.4442 0.386415 32.3908 0.61115C27.5232 0.969413 23.4748 2.67079 20.4703 5.02586C17.481 2.73479 13.4855 1.08612 8.6979 0.734447C5.645 0.510196 3.48228 1.39171 2.07028 2.5505C1.3732 3.12258 0.869328 3.75401 0.534922 4.33331C0.219985 4.87888 0 5.47576 0 5.97942V11.3448V12.3448H1H8.62464C10.1139 12.3448 11.6072 13.0861 12.7481 14.2545C13.7257 15.2556 14.3672 16.4912 14.5335 17.6746V47.7516C14.5335 48.4992 14.7018 49.2745 15.2598 49.8572C15.3775 49.9802 15.5049 50.0865 15.6401 50.1778ZM14.7749 13.5304C14.587 13.296 14.3878 13.071 14.179 12.8571C12.7526 11.3964 10.7699 10.3448 8.62464 10.3448H2V5.97942C2 5.97943 2.00001 5.9794 2.00002 5.97932L2.00005 5.9791C2.0015 5.9692 2.03592 5.73357 2.26704 5.33319C2.48407 4.95724 2.83253 4.51222 3.33906 4.09653C4.33428 3.27978 5.98387 2.54048 8.55138 2.72907C12.8293 3.0433 16.3197 4.45271 18.9367 6.37072C16.7456 8.52186 15.3144 11.0432 14.7749 13.5304ZM16.5335 17.5452V15.7203C16.5335 13.1474 17.897 10.145 20.4852 7.65607C23.1507 10.1618 24.5558 13.2103 24.5558 15.8159V17.4507C24.5273 17.6943 24.5125 17.9391 24.5125 18.1842V47.7516C24.5125 48.2361 24.4004 48.4127 24.3418 48.474C24.2911 48.5269 24.1257 48.6556 23.6064 48.6556H17.4396C17.0615 48.6556 16.871 48.5873 16.7758 48.5298C16.7633 48.5198 16.7538 48.5108 16.7466 48.5033C16.6884 48.4426 16.5765 48.2672 16.5765 47.7844V18.275C16.5765 18.0312 16.5619 17.7876 16.5335 17.5452Z" fill="url(#paint0_linear_10927_234)"/>
<defs>
<linearGradient id="paint0_linear_10927_234" x1="34.7199" y1="7.34071" x2="1.61952" y2="38.6265" gradientUnits="userSpaceOnUse">
<stop stop-color="#EB3850"/>
<stop offset="1" stop-color="#CB162E"/>
</linearGradient>
</defs>
</svg>
